<svg width="168" height="39" viewBox="0 0 168 39" fill="none" xmlns="http://www.w3.org/2000/svg">
<path d="M9.98534 30.5238H1.96614V7.90215H10.0516C12.327 7.90215 14.2858 8.35503 15.9279 9.26078C17.5701 10.1592 18.833 11.4515 19.7166 13.1378C20.6076 14.8241 21.0532 16.8418 21.0532 19.1909C21.0532 21.5473 20.6076 23.5724 19.7166 25.266C18.833 26.9597 17.5627 28.2594 15.9058 29.1652C14.2564 30.0709 12.2829 30.5238 9.98534 30.5238ZM6.74894 26.4258H9.78652C11.2004 26.4258 12.3896 26.1755 13.3543 25.6747C14.3263 25.1666 15.0553 24.3824 15.5413 23.322C16.0347 22.2542 16.2814 20.8772 16.2814 19.1909C16.2814 17.5193 16.0347 16.1533 15.5413 15.0929C15.0553 14.0325 14.33 13.252 13.3653 12.7512C12.4007 12.2505 11.2114 12.0001 9.79756 12.0001H6.74894V26.4258ZM29.3457 30.8441C28.2633 30.8441 27.2986 30.6564 26.4518 30.2808C25.6049 29.8979 24.9348 29.3345 24.4414 28.5908C23.9554 27.8397 23.7124 26.9045 23.7124 25.7852C23.7124 24.8426 23.8855 24.051 24.2316 23.4104C24.5777 22.7697 25.049 22.2542 25.6454 21.864C26.2419 21.4737 26.9194 21.1791 27.6778 20.9803C28.4437 20.7815 29.2463 20.6416 30.0858 20.5606C31.0726 20.4575 31.8678 20.3617 32.4717 20.2734C33.0755 20.1776 33.5137 20.0377 33.7861 19.8536C34.0586 19.6695 34.1948 19.3971 34.1948 19.0362V18.97C34.1948 18.2704 33.9739 17.7292 33.5321 17.3462C33.0976 16.9633 32.479 16.7719 31.6764 16.7719C30.8295 16.7719 30.1558 16.9596 29.655 17.3352C29.1543 17.7034 28.8229 18.1673 28.6609 18.727L24.3089 18.3735C24.5298 17.3426 24.9643 16.4515 25.6123 15.7004C26.2603 14.942 27.0961 14.3602 28.1197 13.9552C29.1506 13.5428 30.3435 13.3367 31.6985 13.3367C32.641 13.3367 33.5431 13.4471 34.4047 13.668C35.2736 13.8889 36.0431 14.2314 36.7132 14.6953C37.3907 15.1592 37.9246 15.7557 38.3149 16.4847C38.7052 17.2063 38.9003 18.0716 38.9003 19.0804V30.5238H34.4378V28.1711H34.3053C34.0328 28.7013 33.6683 29.1689 33.2117 29.5739C32.7552 29.9715 32.2066 30.2845 31.5659 30.5128C30.9253 30.7337 30.1852 30.8441 29.3457 30.8441ZM30.6933 27.5967C31.3855 27.5967 31.9967 27.4605 32.5269 27.188C33.0571 26.9082 33.4732 26.5326 33.7751 26.0613C34.077 25.59 34.228 25.0562 34.228 24.4597V22.6592C34.0807 22.755 33.8782 22.8433 33.6204 22.9243C33.3701 22.998 33.0866 23.0679 32.7699 23.1342C32.4533 23.1931 32.1366 23.2484 31.82 23.2999C31.5033 23.3441 31.2161 23.3846 30.9584 23.4214C30.4061 23.5024 29.9238 23.6313 29.5114 23.808C29.0991 23.9847 28.7787 24.2241 28.5504 24.526C28.3222 24.8205 28.208 25.1887 28.208 25.6305C28.208 26.2712 28.44 26.7609 28.9039 27.0996C29.3752 27.431 29.9717 27.5967 30.6933 27.5967ZM47.2564 7.90215V30.5238H42.5509V7.90215H47.2564ZM53.9308 36.8861C53.3343 36.8861 52.7746 36.8383 52.2518 36.7425C51.7364 36.6542 51.3092 36.54 50.9705 36.4001L52.0309 32.8876C52.5832 33.057 53.0802 33.149 53.5221 33.1637C53.9713 33.1785 54.3579 33.0754 54.6819 32.8545C55.0133 32.6335 55.282 32.258 55.4882 31.7278L55.7644 31.0098L49.6782 13.5576H54.6266L58.1392 26.0171H58.3159L61.8616 13.5576H66.8432L60.2489 32.3574C59.9323 33.2705 59.5015 34.0658 58.9566 34.7433C58.419 35.4281 57.7379 35.9546 56.9131 36.3228C56.0884 36.6984 55.0943 36.8861 53.9308 36.8861Z" fill="#18181B"/>
<path d="M77.5297 15.2144C77.3751 14.6769 77.1578 14.2019 76.878 13.7895C76.5982 13.3698 76.2558 13.0163 75.8508 12.7291C75.4531 12.4346 74.9966 12.21 74.4811 12.0553C73.973 11.9007 73.4097 11.8234 72.7911 11.8234C71.635 11.8234 70.6188 12.1106 69.7425 12.685C68.8735 13.2593 68.1961 14.0951 67.7101 15.1923C67.2241 16.2822 66.981 17.615 66.981 19.1909C66.981 20.7667 67.2204 22.107 67.699 23.2115C68.1777 24.3161 68.8551 25.1593 69.7314 25.741C70.6077 26.3154 71.6423 26.6026 72.8353 26.6026C73.9178 26.6026 74.8419 26.4111 75.6078 26.0282C76.381 25.6379 76.9701 25.0893 77.3751 24.3824C77.7874 23.6755 77.9936 22.8397 77.9936 21.875L78.9657 22.0186H73.1335V18.4177H82.5997V21.2675C82.5997 23.2557 82.18 24.9641 81.3405 26.3927C80.501 27.8139 79.3449 28.9111 77.8721 29.6843C76.3994 30.4502 74.7131 30.8331 72.8132 30.8331C70.6924 30.8331 68.8294 30.3655 67.2241 29.4303C65.6187 28.4877 64.3669 27.1512 63.4685 25.4207C62.5775 23.6828 62.132 21.6209 62.132 19.2351C62.132 17.4015 62.3971 15.7667 62.9273 14.3308C63.4648 12.8875 64.2159 11.6651 65.1806 10.6636C66.1453 9.6621 67.2682 8.89995 68.5495 8.37712C69.8308 7.85429 71.2189 7.59287 72.7138 7.59287C73.9951 7.59287 75.188 7.78065 76.2926 8.1562C77.3972 8.52439 78.3766 9.04723 79.2308 9.7247C80.0923 10.4022 80.7956 11.2085 81.3405 12.1437C81.8854 13.0716 82.2352 14.0951 82.3898 15.2144H77.5297ZM90.942 30.8441C89.8595 30.8441 88.8948 30.6564 88.048 30.2808C87.2012 29.8979 86.5311 29.3345 86.0377 28.5908C85.5517 27.8397 85.3087 26.9045 85.3087 25.7852C85.3087 24.8426 85.4817 24.051 85.8278 23.4104C86.1739 22.7697 86.6452 22.2542 87.2417 21.864C87.8381 21.4737 88.5156 21.1791 89.2741 20.9803C90.0399 20.7815 90.8426 20.6416 91.6821 20.5606C92.6688 20.4575 93.4641 20.3617 94.0679 20.2734C94.6718 20.1776 95.1099 20.0377 95.3824 19.8536C95.6548 19.6695 95.7911 19.3971 95.7911 19.0362V18.97C95.7911 18.2704 95.5702 17.7292 95.1283 17.3462C94.6939 16.9633 94.0753 16.7719 93.2726 16.7719C92.4258 16.7719 91.752 16.9596 91.2513 17.3352C90.7505 17.7034 90.4192 18.1673 90.2572 18.727L85.9051 18.3735C86.1261 17.3426 86.5605 16.4515 87.2085 15.7004C87.8566 14.942 88.6923 14.3602 89.7159 13.9552C90.7469 13.5428 91.9398 13.3367 93.2947 13.3367C94.2373 13.3367 95.1394 13.4471 96.0009 13.668C96.8699 13.8889 97.6394 14.2314 98.3095 14.6953C98.987 15.1592 99.5208 15.7557 99.9111 16.4847C100.301 17.2063 100.497 18.0716 100.497 19.0804V30.5238H96.0341V28.1711H95.9015C95.6291 28.7013 95.2646 29.1689 94.808 29.5739C94.3514 29.9715 93.8028 30.2845 93.1622 30.5128C92.5215 30.7337 91.7815 30.8441 90.942 30.8441ZM92.2896 27.5967C92.9818 27.5967 93.593 27.4605 94.1232 27.188C94.6534 26.9082 95.0694 26.5326 95.3713 26.0613C95.6732 25.59 95.8242 25.0562 95.8242 24.4597V22.6592C95.6769 22.755 95.4744 22.8433 95.2167 22.9243C94.9663 22.998 94.6828 23.0679 94.3662 23.1342C94.0495 23.1931 93.7329 23.2484 93.4162 23.2999C93.0996 23.3441 92.8124 23.3846 92.5547 23.4214C92.0024 23.5024 91.5201 23.6313 91.1077 23.808C90.6953 23.9847 90.375 24.2241 90.1467 24.526C89.9184 24.8205 89.8043 25.1887 89.8043 25.6305C89.8043 26.2712 90.0362 26.7609 90.5002 27.0996C90.9714 27.431 91.5679 27.5967 92.2896 27.5967ZM104.147 30.5238V13.5576H108.632V16.551H108.831C109.184 15.5568 109.773 14.7726 110.598 14.1982C111.423 13.6238 112.409 13.3367 113.558 13.3367C114.722 13.3367 115.712 13.6275 116.529 14.2093C117.347 14.7836 117.892 15.5642 118.164 16.551H118.341C118.687 15.5789 119.313 14.8021 120.219 14.2203C121.132 13.6312 122.211 13.3367 123.455 13.3367C125.038 13.3367 126.323 13.8411 127.31 14.8499C128.304 15.8514 128.801 17.2726 128.801 19.1136V30.5238H124.107V20.0414C124.107 19.0988 123.856 18.3919 123.356 17.9206C122.855 17.4493 122.229 17.2137 121.478 17.2137C120.624 17.2137 119.957 17.4862 119.479 18.0311C119 18.5686 118.761 19.2793 118.761 20.1629V30.5238H114.199V19.942C114.199 19.1099 113.959 18.4471 113.481 17.9538C113.01 17.4604 112.387 17.2137 111.614 17.2137C111.091 17.2137 110.62 17.3462 110.2 17.6113C109.788 17.8691 109.46 18.2336 109.217 18.7049C108.974 19.1688 108.853 19.7137 108.853 20.3396V30.5238H104.147ZM140.25 30.8552C138.505 30.8552 137.003 30.5017 135.743 29.7948C134.492 29.0805 133.527 28.0717 132.849 26.7683C132.172 25.4575 131.833 23.9074 131.833 22.118C131.833 20.3728 132.172 18.8411 132.849 17.523C133.527 16.2049 134.481 15.1776 135.71 14.4412C136.947 13.7048 138.398 13.3367 140.062 13.3367C141.182 13.3367 142.224 13.5171 143.188 13.8779C144.16 14.2314 145.007 14.7652 145.729 15.4795C146.458 16.1938 147.025 17.0922 147.43 18.1747C147.835 19.2498 148.037 20.509 148.037 21.9523V23.2447H133.711V20.3286H143.608C143.608 19.6511 143.461 19.051 143.166 18.5281C142.872 18.0053 142.463 17.5966 141.94 17.3021C141.425 17.0002 140.824 16.8492 140.14 16.8492C139.425 16.8492 138.792 17.0149 138.24 17.3462C137.695 17.6703 137.268 18.1084 136.958 18.6607C136.649 19.2056 136.491 19.8131 136.484 20.4832V23.2557C136.484 24.0952 136.638 24.8205 136.947 25.4317C137.264 26.0429 137.71 26.5142 138.284 26.8456C138.858 27.1769 139.54 27.3426 140.327 27.3426C140.85 27.3426 141.329 27.269 141.763 27.1217C142.198 26.9744 142.57 26.7535 142.879 26.459C143.188 26.1644 143.424 25.8036 143.586 25.3765L147.938 25.6637C147.717 26.7093 147.264 27.6225 146.579 28.403C145.902 29.1762 145.026 29.7801 143.95 30.2145C142.883 30.6416 141.649 30.8552 140.25 30.8552ZM165.225 18.3956L160.917 18.6607C160.843 18.2925 160.685 17.9611 160.442 17.6666C160.199 17.3647 159.878 17.1253 159.481 16.9486C159.09 16.7645 158.623 16.6725 158.078 16.6725C157.349 16.6725 156.734 16.8271 156.233 17.1364C155.733 17.4383 155.482 17.8433 155.482 18.3514C155.482 18.7564 155.644 19.0988 155.968 19.3787C156.292 19.6585 156.848 19.8831 157.636 20.0525L160.707 20.671C162.356 21.0097 163.586 21.5547 164.396 22.3058C165.206 23.0569 165.611 24.0436 165.611 25.266C165.611 26.378 165.283 27.3537 164.628 28.1932C163.98 29.0326 163.089 29.688 161.955 30.1593C160.828 30.6232 159.529 30.8552 158.056 30.8552C155.81 30.8552 154.02 30.3876 152.688 29.4524C151.362 28.5098 150.585 27.2285 150.357 25.6085L154.985 25.3654C155.125 26.0503 155.464 26.5731 156.001 26.9339C156.539 27.2874 157.227 27.4641 158.067 27.4641C158.892 27.4641 159.554 27.3058 160.055 26.9892C160.563 26.6652 160.821 26.2491 160.828 25.741C160.821 25.3139 160.641 24.9641 160.287 24.6917C159.934 24.4118 159.389 24.1983 158.652 24.051L155.714 23.4656C154.057 23.1342 152.824 22.5598 152.014 21.7424C151.211 20.9251 150.81 19.8831 150.81 18.6165C150.81 17.5267 151.104 16.5878 151.693 15.7998C152.29 15.0119 153.126 14.4044 154.201 13.9773C155.283 13.5502 156.55 13.3367 158.001 13.3367C160.143 13.3367 161.83 13.7895 163.06 14.6953C164.297 15.601 165.018 16.8345 165.225 18.3956Z" fill="#EA580C"/>
</svg>
